<?xml version="1.0" encoding="UTF-8" standalone="no"?>
<svg
   xmlns:dc="http://purl.org/dc/elements/1.1/"
   xmlns:cc="http://creativecommons.org/ns#"
   xmlns:rdf="http://www.w3.org/1999/02/22-rdf-syntax-ns#"
   xmlns:svg="http://www.w3.org/2000/svg"
   xmlns="http://www.w3.org/2000/svg"
   xmlns:sodipodi="http://sodipodi.sourceforge.net/DTD/sodipodi-0.dtd"
   xmlns:inkscape="http://www.inkscape.org/namespaces/inkscape"
   color-rendering="auto"
   color-interpolation="auto"
   text-rendering="auto"
   stroke-miterlimit="10"
   shape-rendering="auto"
   font-weight="normal"
   font-style="normal"
   font-size="12"
   image-rendering="auto"
   id="svg3052"
   version="1.1"
   inkscape:version="0.48.4 r9939"
   width="275.34381"
   height="250.45309"
   sodipodi:docname="light_bulb.svg"
   style="font-size:12px;font-style:normal;font-weight:normal;fill:#000000;fill-opacity:1;stroke:#000000;stroke-width:1;stroke-linecap:square;stroke-linejoin:miter;stroke-miterlimit:10;stroke-opacity:1;stroke-dasharray:none;stroke-dashoffset:0;font-family:Dialog">
  <metadata
     id="metadata3063">
    <rdf:RDF>
      <cc:Work
         rdf:about="">
        <dc:format>image/svg+xml</dc:format>
        <dc:type
           rdf:resource="http://purl.org/dc/dcmitype/StillImage" />
      </cc:Work>
    </rdf:RDF>
  </metadata>
  <sodipodi:namedview
     pagecolor="#ffffff"
     bordercolor="#666666"
     borderopacity="1"
     objecttolerance="10"
     gridtolerance="10"
     guidetolerance="10"
     inkscape:pageopacity="0"
     inkscape:pageshadow="2"
     inkscape:window-width="1918"
     inkscape:window-height="529"
     id="namedview3061"
     showgrid="false"
     showguides="true"
     inkscape:guide-bbox="true"
     fit-margin-top="0"
     fit-margin-left="0"
     fit-margin-right="0"
     fit-margin-bottom="0"
     inkscape:zoom="0.34303779"
     inkscape:cx="360.51604"
     inkscape:cy="-192.05609"
     inkscape:window-x="0"
     inkscape:window-y="531"
     inkscape:window-maximized="0"
     inkscape:current-layer="svg3052">
    <sodipodi:guide
       orientation="0,1"
       position="516.10746,-216.8347"
       id="guide3065" />
  </sodipodi:namedview>
  <!--Unicode Character 'ELECTRIC LIGHT BULB' (U+1F4A1)-->
  <defs
     id="genericDefs" />
  <g
     id="g3055"
     style="fill:#fc0a49"
     transform="translate(-11.5312,-83.6719)">
    <g
       id="g3057"
       style="fill:#fc0a49">
      <path
         d="m 279.2812,93.7969 -39.0937,24.75 q -2.1094,-2.1094 -6.4687,-9.7031 l 39.2343,-25.1719 q 0,0 6.3281,10.125 z m 7.5938,68.9062 -44.1562,0 0,-11.9531 44.1562,0 0,11.9531 z m -7.5938,57.0938 -5.9062,10.125 -39.6562,-24.3281 q 1.2656,-2.8126 6.0468,-10.5469 l 39.5156,24.75 z M 64.6875,108.4219 q -1.9687,3.375 -6.0469,10.125 L 19.125,93.7969 q 3.9375,-6.75 5.9062,-10.125 l 39.6563,24.75 z m 161.8594,50.625 q 0,13.6406 -4.2188,24.6093 -1.4062,3.6563 -11.1093,22.3594 -13.5,26.1563 -14.4844,41.4844 0,4.5 -0.7032,13.5 -0.5624,2.9531 -3.164,8.0859 -2.6016,5.1329 -2.7422,6.8203 0.2812,2.3907 -1.4062,7.4532 1.125,3.9375 1.125,4.3594 0,0.8437 -0.6329,2.3203 -0.6328,1.4765 -0.6328,2.1797 0,0.7031 0.3516,2.039 0.3515,1.336 0.3515,2.0391 0,7.3125 -0.8437,12.9375 -0.9844,6.3281 -7.3125,11.25 -2.3906,1.8281 -11.8125,7.1718 -1.6875,0.9844 -5.0625,3.0938 -1.5469,0.2812 -4.5,1.2656 -0.7031,0.8438 -2.6719,1.9688 -0.5625,0.1406 -7.875,0.1406 -7.3125,0 -7.875,-0.1406 -0.8437,-0.7032 -2.6719,-1.9688 -1.5468,-0.2812 -4.5,-1.2656 -2.6718,-1.6875 -8.0156,-5.0625 -3.9375,-1.9687 -7.7344,-4.0781 -3.7968,-2.1094 -6.6093,-5.9063 -2.1094,-2.8125 -2.1094,-10.5469 0,-0.7031 -0.2813,-2.1093 -0.2812,-1.4063 -0.2812,-2.1094 0,-0.8437 0.2812,-2.5313 0.2813,-1.6874 0.2813,-2.5312 0,-0.8438 -0.5625,-2.6016 -0.5625,-1.7578 -0.5625,-2.7422 0,-0.9843 0.3516,-2.9531 0.3515,-1.9687 0.3515,-2.9531 0,-4.6406 -1.4062,-10.2656 -0.9844,-1.5469 -2.8125,-4.7813 Q 102.9375,264.9375 102.375,261 102.2344,251.2969 99,232.875 94.9219,221.4844 89.1562,209.9531 77.3438,186.6094 76.9219,185.7656 q -5.0625,-12.375 -5.0625,-26.7187 0,-33.6094 22.2187,-53.0157 21.0938,-18.4218 55.125,-18.4218 34.1719,0 55.125,18.4218 22.2188,19.4063 22.2188,53.0157 z m -170.8594,3.6562 -44.1563,0 0,-11.9531 44.1563,0 0,11.9531 z m 9,42.3281 -39.2344,24.8907 q -2.1093,-3.2344 -6.3281,-9.7031 l 39.5156,-25.1719 q 2.1094,3.2343 6.0469,9.9843 z m 151.5937,-47.3906 q 0,-29.25 -19.2656,-45.8437 -18.1406,-15.6094 -47.8125,-15.6094 -29.6719,0 -47.8125,15.6094 -19.2656,16.5937 -19.2656,45.8437 0,12.6563 4.5,23.2032 1.125,2.8124 10.9688,20.6718 7.1718,13.0782 11.25,24.1875 3.6562,9.8438 3.6562,31.6407 0,2.1093 1.6875,5.625 1.6875,3.9374 3.375,4.7812 5.0625,2.8125 31.6406,2.8125 25.5938,0 31.6407,-2.8125 5.0624,-2.3906 5.0624,-22.0781 0,2.25 0.7032,-5.3438 1.4062,-15.6093 16.0312,-41.4843 13.6406,-24.3282 13.6406,-41.2032 z m -36.7031,115.5938 -1.5469,0 q -4.5,0 -14.2734,0.7031 -9.7734,0.7031 -14.5547,0.7031 -4.7812,0 -14.4843,-0.7031 -9.7032,-0.7031 -14.4844,-0.7031 l -1.4063,0 0,5.0625 q 0,0.7031 1.5469,2.9531 1.5469,2.25 1.5469,3.5156 0,0.8438 -1.336,1.8282 -1.3359,0.9843 -1.3359,1.6874 0,0.5626 1.3359,2.1797 1.336,1.6172 1.336,2.461 0,0.7031 -1.125,2.3203 -1.125,1.6172 -1.125,2.3203 0,0.7031 1.125,2.1094 1.125,1.4062 1.125,1.9687 0,0.7032 -0.9141,2.1797 -0.914,1.4766 -0.914,2.0391 0,1.2656 7.875,6.75 7.1718,5.0625 9.7031,6.0468 2.1093,0.2813 4.2187,0.7032 2.8125,0.4218 2.9532,1.9687 1.5468,0.1407 4.3593,0.1407 2.6719,0 4.2188,-0.1407 1.4062,-1.6875 5.3437,-2.1093 0.9844,0 1.9688,-0.5626 12.6562,-6.8906 16.875,-10.9687 0.7031,-0.7031 0.7031,-3.0937 0,-0.7032 -0.9141,-2.3907 -0.914,-1.6875 -0.914,-2.3906 0,-0.7031 1.125,-2.3203 1.125,-1.6172 1.125,-2.3203 0,-0.7031 -1.125,-2.5313 -1.125,-1.8281 -1.125,-2.3906 0,-0.5625 1.2656,-2.3203 1.2656,-1.7578 1.4062,-2.4609 -0.8437,-0.7032 -2.6718,-2.25 l 0,-0.7032 q -0.1406,-1.9687 1.4765,-4.1484 1.6172,-2.1797 1.6172,-5.1328 z"
         id="path3059"
         style="fill:#fc0a49;stroke:none"
         inkscape:connector-curvature="0" />
    </g>
  </g>
</svg>
