<?xml version="1.0" encoding="UTF-8" standalone="no"?>
<!-- Created with Inkscape (http://www.inkscape.org/) -->

<svg
   xmlns:dc="http://purl.org/dc/elements/1.1/"
   xmlns:cc="http://creativecommons.org/ns#"
   xmlns:rdf="http://www.w3.org/1999/02/22-rdf-syntax-ns#"
   xmlns:svg="http://www.w3.org/2000/svg"
   xmlns="http://www.w3.org/2000/svg"
   xmlns:sodipodi="http://sodipodi.sourceforge.net/DTD/sodipodi-0.dtd"
   xmlns:inkscape="http://www.inkscape.org/namespaces/inkscape"
   width="533.13251"
   height="97.75"
   id="svg9657"
   version="1.1"
   inkscape:version="0.48.3.1 r9886"
   sodipodi:docname="logo_and_title.svg">
  <defs
     id="defs9659">
    <filter
       id="filter4071-7-9-3"
       inkscape:collect="always"
       color-interpolation-filters="sRGB">
      <feGaussianBlur
         id="feGaussianBlur4073-2-5-2"
         stdDeviation="2.1202225"
         inkscape:collect="always" />
    </filter>
    <filter
       height="1.6404169"
       y="-0.32020846"
       width="1.5547189"
       x="-0.27735946"
       id="filter4007-6-3-4"
       inkscape:collect="always"
       color-interpolation-filters="sRGB">
      <feGaussianBlur
         id="feGaussianBlur4009-7-1-5"
         stdDeviation="2.1892145"
         inkscape:collect="always" />
    </filter>
    <filter
       height="1.5929892"
       y="-0.2964946"
       width="1.5136207"
       x="-0.25681037"
       id="filter4041-2-7-59"
       inkscape:collect="always"
       color-interpolation-filters="sRGB">
      <feGaussianBlur
         id="feGaussianBlur4043-9-4-5"
         stdDeviation="1.6448618"
         inkscape:collect="always" />
    </filter>
    <filter
       height="1.6404169"
       y="-0.32020846"
       width="1.5547189"
       x="-0.27735946"
       id="filter4007-6-3-0-6"
       inkscape:collect="always"
       color-interpolation-filters="sRGB">
      <feGaussianBlur
         id="feGaussianBlur4009-7-1-0-6"
         stdDeviation="2.1892145"
         inkscape:collect="always" />
    </filter>
  </defs>
  <sodipodi:namedview
     id="base"
     pagecolor="#ffffff"
     bordercolor="#666666"
     borderopacity="1.0"
     inkscape:pageopacity="0.0"
     inkscape:pageshadow="2"
     inkscape:zoom="0.98994949"
     inkscape:cx="13.259238"
     inkscape:cy="-10.754915"
     inkscape:document-units="px"
     inkscape:current-layer="layer1"
     showgrid="false"
     fit-margin-top="0"
     fit-margin-left="0"
     fit-margin-right="0"
     fit-margin-bottom="0"
     borderlayer="true"
     inkscape:window-width="1022"
     inkscape:window-height="562"
     inkscape:window-x="0"
     inkscape:window-y="18"
     inkscape:window-maximized="0" />
  <metadata
     id="metadata9662">
    <rdf:RDF>
      <cc:Work
         rdf:about="">
        <dc:format>image/svg+xml</dc:format>
        <dc:type
           rdf:resource="http://purl.org/dc/dcmitype/StillImage" />
        <dc:title />
      </cc:Work>
    </rdf:RDF>
  </metadata>
  <g
     inkscape:label="Layer 1"
     inkscape:groupmode="layer"
     id="layer1"
     transform="translate(-75.59375,-434.9375)"
     style="display:inline">
    <g
       style="font-size:8.76801681999999971px;font-style:normal;font-weight:normal;line-height:125%;letter-spacing:0px;word-spacing:0px;fill:#fc0a49;fill-opacity:1;stroke:none;display:inline;font-family:Sans"
       id="text4048"
       transform="translate(73.698862,126.77311)">
      <path
         d="m 44.467941,381.50681 0,-5.18033 8.177203,0 0,-53.55854 -8.177203,0 0,-5.18032 32.880063,0 0,5.18032 -8.220016,0 0,21.49192 25.430674,0 0,-21.49192 -8.177203,0 0,-5.18032 32.880061,0 0,5.18032 -8.22001,0 0,53.55854 8.22001,0 0,5.18033 -32.880061,0 0,-5.18033 8.177203,0 0,-26.2013 -25.430674,0 0,26.2013 8.220016,0 0,5.18033 -32.880063,0"
         style="font-style:normal;font-variant:normal;font-weight:bold;font-stretch:normal;fill:#fc0a49;fill-opacity:1;font-family:Serif;-inkscape-font-specification:Serif Bold"
         id="path6042"
         inkscape:connector-curvature="0" />
      <path
         d="m 127.3531,381.50681 0,-5.18033 8.17721,0 0,-53.55854 -8.17721,0 0,-5.18032 57.45449,0 0,15.07003 -5.90814,0 0,-9.20471 -26.8863,0 0,20.50723 16.73972,0 0,-8.13439 5.86532,0 0,22.09129 -5.86532,0 0,-8.13439 -16.73972,0 0,25.8588 27.69974,0 0,-9.2047 5.86532,0 0,15.07003 -58.22511,0"
         style="font-style:normal;font-variant:normal;font-weight:bold;font-stretch:normal;fill:#fc0a49;fill-opacity:1;font-family:Serif;-inkscape-font-specification:Serif Bold"
         id="path6044"
         inkscape:connector-curvature="0" />
      <path
         d="m 219.74266,356.88957 -13.31472,19.43691 7.87752,0 0,5.18033 -22.69067,0 0,-5.18033 7.87751,0 16.82535,-24.44598 -19.99348,-29.11256 -5.86532,0 0,-5.18032 31.76694,0 0,5.18032 -7.02127,0 12.37284,17.98129 12.2444,-17.98129 -7.44939,0 0,-5.18032 22.26254,0 0,5.18032 -7.87752,0 -15.79784,22.94755 20.97817,30.61099 6.03657,0 0,5.18033 -31.89537,0 0,-5.18033 7.10689,0 -13.44315,-19.43691"
         style="font-style:normal;font-variant:normal;font-weight:bold;font-stretch:normal;fill:#fc0a49;fill-opacity:1;font-family:Serif;-inkscape-font-specification:Serif Bold"
         id="path6046"
         inkscape:connector-curvature="0" />
    </g>
    <text
       xml:space="preserve"
       style="font-size:8.76801681999999971px;font-style:normal;font-weight:normal;line-height:125%;letter-spacing:0px;word-spacing:0px;fill:#a39191;fill-opacity:1;stroke:none;display:inline;font-family:Sans"
       x="329.20291"
       y="507.65662"
       id="text4048-2"
       sodipodi:linespacing="125%"
       inkscape:export-filename="/home/coco/proggen/jekyll/test2/assets/image6250.png"
       inkscape:export-xdpi="90"
       inkscape:export-ydpi="90"><tspan
         sodipodi:role="line"
         id="tspan4050-3"
         x="329.20291"
         y="507.65662"
         style="font-size:87.68016815000000008px;fill:#a39191;fill-opacity:1"><tspan
           style="font-style:normal;font-variant:normal;font-weight:normal;font-stretch:normal;fill:#a39191;fill-opacity:1;font-family:Umpush;-inkscape-font-specification:Umpush"
           id="tspan4054-7">golems</tspan></tspan></text>
  </g>
  <g
     inkscape:groupmode="layer"
     id="layer2"
     inkscape:label="golem"
     style="display:none">
    <path
       transform="translate(-75.59375,-434.9375)"
       inkscape:connector-curvature="0"
       style="fill:#322a2a;stroke:#322a2a;stroke-width:5;stroke-miterlimit:4;stroke-opacity:1;stroke-dasharray:none;display:inline"
       d="m 115.01973,437.43143 -14.0937,7.6875 -0.063,7.84375 -1.5312,0.0312 c -7.3613,0.26699 -12.4497,4.18367 -17.8438,7.59375 -2.7031,7.30753 -0.8525,16.35983 -0.4062,24.875 l -2,4.5625 -0.8438,10.21875 18.6563,8.75 1.2187,-7 -7.3124,-4.28125 -0.4063,-4.28125 4.0625,2.34375 5.4688,-1.1875 -7.6876,-7.1875 1.8126,-10.6875 c 0.9571,7.7459 6.4482,14.64061 10.5624,21.78125 l -3.4687,12.9375 -1.0313,11.0625 -2.9374,2.625 0.5312,3.875 7.3125,1.15625 4.6563,-0.96875 3.0312,-3.5 1.625,-11.84375 2.5938,-3.8125 2.6874,3.625 2.8438,12.625 7.2812,3.6875 6.7813,-0.71875 3.3437,-2.5625 -1.6562,-4.46875 -5.8438,-3.3125 0.8126,-8.15625 -3.625,-12.0625 c 2.5875,-6.76879 5.7617,-11.54964 7.0937,-22.53125 l 5.6563,12.03125 -5.4063,6.75 3.5937,1.21875 3.8438,-2.90625 -0.1875,4.0625 -5.2813,4.46875 3.0313,6.03125 11.1563,-10.6875 0.4062,-12.4375 -4.6562,-6.03125 c -0.8321,-6.05012 1.0398,-12.30358 -3.4376,-18.0625 -5.4627,-2.6496 -9.0793,-6.66985 -16.4374,-7.90625 l 0.062,-7.375 -13.9687,-7.875 z"
       id="path2985-6-5-3-0-8-68-1-9-5" />
    <path
       transform="translate(-75.59375,-434.9375)"
       d="m 104.5954,498.70457 c -4.11428,-7.14064 -9.585245,-14.02115 -10.54246,-21.76705 l -1.824687,10.68917 7.70411,7.1909 -5.473959,1.16609 -4.054787,-2.33218 0.405464,4.27567 7.298646,4.27567 -1.216441,6.99655 -18.652079,-8.74568 0.848844,-10.22193 1.989502,-4.54858 c -0.446325,-8.51517 -2.29766,-17.56909 0.405463,-24.87662 5.394065,-3.41008 10.479818,-7.31261 17.841152,-7.5796 l 27.775362,-0.58305 c 8.623,0.82649 12.35064,5.30291 18.24661,8.16265 4.47726,5.75892 2.61455,12.0243 3.44659,18.07442 l 4.66299,6.02481 -0.40547,12.43832 -11.1507,10.68918 -3.04108,-6.02482 5.27123,-4.47002 0.20273,-4.08132 -3.85205,2.91523 -3.59862,-1.21468 5.42326,-6.75361 -5.6767,-12.04963 c -1.33202,10.98161 -4.50826,15.77567 -7.09591,22.54446 l 3.64932,12.04963 -0.81097,8.16265 5.83028,3.31771 1.67109,4.45621 -3.35634,2.58653 -6.78065,0.71741 -7.29864,-3.69262 -2.83835,-12.63268 -2.67515,-3.61613 -2.59608,3.81047 -1.6219,11.85527 -3.04113,3.49828 -4.66344,0.96076 -7.298187,-1.1551 -0.538655,-3.87314 2.957272,-2.64735 1.01924,-11.03772 z"
       id="path2985-6-5-3-0-8-68"
       style="fill:#1c1716;fill-opacity:1;stroke:none;display:inline"
       inkscape:connector-curvature="0" />
    <path
       d="m 628.6429,690.33136 9.50369,-30.47974 31.14807,-7.00942 21.64438,23.47031 -9.50369,30.47973 -31.14807,7.00943 z"
       id="path4341-3-3-3-4-5-4"
       style="fill:#363636;fill-opacity:1;stroke:none;display:inline;filter:url(#filter4071-7-9-3)"
       inkscape:connector-curvature="0"
       transform="matrix(0.49067645,-0.12456365,0.12994187,0.47036763,-373.1676,-218.95132)" />
    <path
       transform="translate(-75.59375,-434.9375)"
       d="m 100.79127,460.8658 0.1172,-15.5347 14.0929,-7.67005 13.97575,7.86464 -0.1172,15.5347 -14.0929,7.67006 z"
       id="path4341-3-3-6-2-3"
       style="fill:#1c1716;fill-opacity:1;stroke:none;display:inline"
       inkscape:connector-curvature="0" />
    <g
       id="g3159-8-4-5"
       transform="matrix(0.50759065,0,0,0.48658176,-295.53531,-313.18993)"
       style="fill:#55ffdd;fill-opacity:1;stroke-width:5.03043222;stroke-miterlimit:4;stroke-dasharray:none;display:inline">
      <path
         inkscape:connector-curvature="0"
         style="fill:#55ffdd;fill-opacity:1;stroke:none"
         id="path3761-7-7-2-06-3-8-1"
         d="m 653.70899,669.57838 4.73802,8.20145 -4.73365,8.20397 -9.47167,0.003 -4.73802,-8.20145 4.73365,-8.20396 z" />
      <path
         inkscape:connector-curvature="0"
         style="fill:#55ffdd;fill-opacity:1;stroke:none"
         id="path3761-7-9-9-7-9-95-2-4"
         d="m 674.46387,670.32059 3.84475,6.65521 -3.84121,6.65726 -7.68595,0.002 -3.84476,-6.65521 3.84121,-6.65726 z" />
      <path
         inkscape:connector-curvature="0"
         style="opacity:0.73831781;fill:#55ffdd;fill-opacity:1;stroke:none;filter:url(#filter4007-6-3-4)"
         id="path3761-7-7-2-06-7-8-9-9"
         d="m 653.61167,669.57838 4.73802,8.20145 -4.73365,8.20397 -9.47167,0.003 -4.73802,-8.20145 4.73365,-8.20396 z" />
      <path
         inkscape:connector-curvature="0"
         style="opacity:0.81775668;fill:#55ffdd;fill-opacity:1;stroke:none;filter:url(#filter4041-2-7-59)"
         id="path3761-7-9-9-7-9-6-0-6-2"
         d="m 674.54513,670.24053 3.84475,6.65521 -3.84121,6.65726 -7.68595,0.002 -3.84476,-6.65521 3.84121,-6.65726 z" />
      <path
         d="m 674.54513,670.24053 3.84475,6.65521 -3.84121,6.65726 -7.68595,0.002 -3.84476,-6.65521 3.84121,-6.65726 z"
         id="right-eye-5"
         style="fill:#ffffff;fill-opacity:1;stroke:none;filter:url(#filter4041-2-7-59)"
         inkscape:connector-curvature="0"
         class="flicker-right" />
    </g>
    <path
       class="flicker-left"
       d="m 94.244055,26.704982 4.73802,8.20145 -4.73365,8.20397 -9.471668,0.003 -4.73802,-8.20145 4.73365,-8.20396 z"
       id="left-eye-5"
       style="fill:#ffffff;fill-opacity:1;stroke:none;display:inline;filter:url(#filter4007-6-3-0-6)"
       inkscape:connector-curvature="0"
       transform="matrix(0.50759065,0,0,0.48658176,-11.500622,-0.16758)" />
  </g>
</svg>
