<?xml version="1.0" encoding="UTF-8" standalone="no"?>
<!-- Created with Inkscape (http://www.inkscape.org/) -->

<svg
   xmlns:dc="http://purl.org/dc/elements/1.1/"
   xmlns:cc="http://creativecommons.org/ns#"
   xmlns:rdf="http://www.w3.org/1999/02/22-rdf-syntax-ns#"
   xmlns:svg="http://www.w3.org/2000/svg"
   xmlns="http://www.w3.org/2000/svg"
   xmlns:sodipodi="http://sodipodi.sourceforge.net/DTD/sodipodi-0.dtd"
   xmlns:inkscape="http://www.inkscape.org/namespaces/inkscape"
   width="82.4375"
   height="118.78125"
   id="svg9657"
   version="1.1"
   inkscape:version="0.48.4 r9939"
   sodipodi:docname="question_logo.svg"
   inkscape:export-filename="/home/leex/hp_slides/imgs/question_logo.png"
   inkscape:export-xdpi="1075.78"
   inkscape:export-ydpi="1075.78">
  <defs
     id="defs9659">
    <filter
       height="1.6404169"
       y="-0.32020846"
       width="1.5547189"
       x="-0.27735946"
       id="filter4007-6-3-0-6-2"
       inkscape:collect="always"
       color-interpolation-filters="sRGB">
      <feGaussianBlur
         id="feGaussianBlur4009-7-1-0-6-9"
         stdDeviation="2.1892145"
         inkscape:collect="always" />
    </filter>
    <filter
       height="1.6404169"
       y="-0.32020846"
       width="1.5547189"
       x="-0.27735946"
       id="filter4007-6-3-4-9"
       inkscape:collect="always"
       color-interpolation-filters="sRGB">
      <feGaussianBlur
         id="feGaussianBlur4009-7-1-5-6"
         stdDeviation="2.1892145"
         inkscape:collect="always" />
    </filter>
    <filter
       height="1.5929892"
       y="-0.2964946"
       width="1.5136207"
       x="-0.25681037"
       id="filter4041-2-7-59-6"
       inkscape:collect="always"
       color-interpolation-filters="sRGB">
      <feGaussianBlur
         id="feGaussianBlur4043-9-4-5-8"
         stdDeviation="1.6448618"
         inkscape:collect="always" />
    </filter>
    <filter
       id="filter4071-7-9-3-7"
       inkscape:collect="always"
       color-interpolation-filters="sRGB">
      <feGaussianBlur
         id="feGaussianBlur4073-2-5-2-8"
         stdDeviation="2.1202225"
         inkscape:collect="always" />
    </filter>
  </defs>
  <sodipodi:namedview
     id="base"
     pagecolor="#322a2a"
     bordercolor="#666666"
     borderopacity="1.0"
     inkscape:pageopacity="0"
     inkscape:pageshadow="2"
     inkscape:zoom="1.979899"
     inkscape:cx="103.28336"
     inkscape:cy="94.064023"
     inkscape:document-units="px"
     inkscape:current-layer="layer1"
     showgrid="false"
     fit-margin-top="0"
     fit-margin-left="0"
     fit-margin-right="0"
     fit-margin-bottom="0"
     borderlayer="true"
     inkscape:window-width="1366"
     inkscape:window-height="768"
     inkscape:window-x="0"
     inkscape:window-y="0"
     inkscape:window-maximized="0"
     showguides="true"
     inkscape:guide-bbox="true">
    <sodipodi:guide
       orientation="-0.70710678,0.70710678"
       position="78.67865,-10.841347"
       id="guide3834" />
  </sodipodi:namedview>
  <metadata
     id="metadata9662">
    <rdf:RDF>
      <cc:Work
         rdf:about="">
        <dc:format>image/svg+xml</dc:format>
        <dc:type
           rdf:resource="http://purl.org/dc/dcmitype/StillImage" />
        <dc:title />
      </cc:Work>
    </rdf:RDF>
  </metadata>
  <g
     inkscape:label="Layer 1"
     inkscape:groupmode="layer"
     id="layer1"
     transform="translate(-99.58419,-412.03442)">
    <g
       id="g3044"
       style="fill:#808080">
      <g
         id="g3048"
         transform="translate(-162.63456,-12.121831)"
         style="stroke:#322a2a;stroke-width:7;stroke-miterlimit:4;stroke-opacity:1;stroke-dasharray:none">
        <path
           d="m 281.72723,461.52928 -1.82468,-10.68917 7.70411,-7.1909 -5.47396,-1.16609 -4.05479,2.33218 0.40546,-4.27567 7.29865,-4.27567 -1.21644,-6.99655 -18.65208,8.74568 0.84884,10.22193 1.98951,4.54858 c -0.44633,8.51517 -2.29766,17.56909 0.40546,24.87662 5.39406,3.41008 10.47982,7.31261 17.84115,7.5796 l 27.77536,0.58305 c 8.623,-0.82649 12.85572,-3.2826 18.75169,-6.14234 4.47726,-5.75892 2.10947,-14.04461 2.94151,-20.09473 l 4.66299,-6.02481 -0.40547,-12.43832 -11.1507,-10.68918 -3.04108,6.02482 5.27123,4.47002 0.20273,4.08132 -3.85205,-2.91523 -3.59862,1.21468 5.42326,6.75361 -5.6767,12.04963 c -9.54328,23.79407 -35.42747,21.56354 -42.57538,-0.58306 z"
           id="path2985-6-5-3-0-8-68-1-3-5"
           style="fill:#808080;fill-opacity:1;stroke:#322a2a;stroke-width:7;stroke-miterlimit:4;stroke-opacity:1;stroke-dasharray:none"
           inkscape:connector-curvature="0"
           sodipodi:nodetypes="ccccccccccccccccccccccccccc" />
        <path
           d="m 291.19826,507.72647 c -4.11428,-7.14064 -12.79953,-18.66401 -13.75674,-26.40991 0.68207,-12.88191 6.37168,-14.70319 13.97263,-17.49117 l 22.0357,0.8709 c 18.23991,4.56596 10.45644,13.77205 9.78133,20.68007 -1.33202,10.98161 -4.50826,15.77567 -7.09591,22.54446 l 3.64932,12.04963 -0.81097,8.16265 5.83028,3.31771 1.67109,4.45621 -3.35634,2.58653 -6.78065,0.71741 -7.29864,-3.69262 -2.83835,-12.63268 -2.67515,-3.61613 -2.59608,3.81047 -1.6219,11.85527 -3.04113,3.49828 -4.66344,0.96076 -7.29818,-1.1551 -0.53866,-3.87314 2.95727,-2.64735 1.01924,-11.03772 z"
           id="path2985-6-5-3-0-8-68-8-4-1"
           style="fill:#808080;fill-opacity:1;stroke:#322a2a;stroke-width:7;stroke-miterlimit:4;stroke-opacity:1;stroke-dasharray:none"
           inkscape:connector-curvature="0"
           sodipodi:nodetypes="cccccccccccccccccccccccc" />
      </g>
    </g>
    <g
       id="g3820"
       transform="translate(-82.832508,-5.5558389)">
      <path
         sodipodi:nodetypes="ccccccccccccccccccccccccccc"
         inkscape:connector-curvature="0"
         style="fill:#1c1716;fill-opacity:1;stroke:none"
         id="path2985-6-5-3-0-8-68-1-3"
         d="m 202.15779,455.20569 -1.82468,-10.68917 7.70411,-7.1909 -5.47396,-1.16609 -4.05479,2.33218 0.40546,-4.27567 7.29865,-4.27567 -1.21644,-6.99655 -18.65208,8.74568 0.84884,10.22193 1.98951,4.54858 c -0.44633,8.51517 -2.29766,17.56909 0.40546,24.87662 5.39406,3.41008 10.47982,7.31261 17.84115,7.5796 l 27.77536,0.58305 c 8.623,-0.82649 12.85572,-3.2826 18.75169,-6.14234 4.47726,-5.75892 2.10947,-14.04461 2.94151,-20.09473 l 4.66299,-6.02481 -0.40547,-12.43832 -11.1507,-10.68918 -3.04108,6.02482 5.27123,4.47002 0.20273,4.08132 -3.85205,-2.91523 -3.59862,1.21468 5.42326,6.75361 -5.6767,12.04963 c -9.54328,23.79407 -35.42747,21.56354 -42.57538,-0.58306 z" />
      <path
         sodipodi:nodetypes="cccccccccccccccccccccccc"
         inkscape:connector-curvature="0"
         style="fill:#1c1716;fill-opacity:1;stroke:none"
         id="path2985-6-5-3-0-8-68-8-4"
         d="m 211.62882,501.40288 c -4.11428,-7.14064 -12.79953,-18.66401 -13.75674,-26.40991 0.68207,-12.88191 6.37168,-14.70319 13.97263,-17.49117 l 22.0357,0.8709 c 18.23991,4.56596 10.45644,13.77205 9.78133,20.68007 -1.33202,10.98161 -4.50826,15.77567 -7.09591,22.54446 l 3.64932,12.04963 -0.81097,8.16265 5.83028,3.31771 1.67109,4.45621 -3.35634,2.58653 -6.78065,0.71741 -7.29864,-3.69262 -2.83835,-12.63268 -2.67515,-3.61613 -2.59608,3.81047 -1.6219,11.85527 -3.04113,3.49828 -4.66344,0.96076 -7.29818,-1.1551 -0.53866,-3.87314 2.95727,-2.64735 1.01924,-11.03772 z" />
      <g
         transform="translate(51.071428,7)"
         id="g3240">
        <path
           d="m 628.6429,690.33136 9.50369,-30.47974 31.14807,-7.00942 21.64438,23.47031 -9.50369,30.47973 -31.14807,7.00943 z"
           id="path4341-3-3-3-4-5-4-4"
           style="fill:#363636;fill-opacity:1;stroke:none;filter:url(#filter4071-7-9-3-7)"
           inkscape:connector-curvature="0"
           transform="matrix(0.49067645,-0.12456365,0.12994187,0.47036763,-240.45469,212.23257)" />
        <path
           d="m 157.91043,457.11219 0.1172,-15.5347 14.0929,-7.67005 13.97575,7.86464 -0.1172,15.5347 -14.0929,7.67006 z"
           id="path4341-3-3-6-2-3-2"
           style="fill:#1c1716;fill-opacity:1;stroke:none"
           inkscape:connector-curvature="0" />
        <g
           id="g3159-8-4-5-5"
           transform="matrix(0.50759065,0,0,0.48658176,-162.8224,117.99396)"
           style="fill:#55ffdd;fill-opacity:1;stroke-width:5.03043222;stroke-miterlimit:4;stroke-dasharray:none">
          <path
             inkscape:connector-curvature="0"
             style="fill:#55ffdd;fill-opacity:1;stroke:none"
             id="path3761-7-7-2-06-3-8-1-1"
             d="m 653.70899,669.57838 4.73802,8.20145 -4.73365,8.20397 -9.47167,0.003 -4.73802,-8.20145 4.73365,-8.20396 z" />
          <path
             inkscape:connector-curvature="0"
             style="fill:#55ffdd;fill-opacity:1;stroke:none"
             id="path3761-7-9-9-7-9-95-2-4-5"
             d="m 674.46387,670.32059 3.84475,6.65521 -3.84121,6.65726 -7.68595,0.002 -3.84476,-6.65521 3.84121,-6.65726 z" />
          <path
             inkscape:connector-curvature="0"
             style="opacity:0.73831781;fill:#55ffdd;fill-opacity:1;stroke:none;filter:url(#filter4007-6-3-4-9)"
             id="path3761-7-7-2-06-7-8-9-9-5"
             d="m 653.61167,669.57838 4.73802,8.20145 -4.73365,8.20397 -9.47167,0.003 -4.73802,-8.20145 4.73365,-8.20396 z" />
          <path
             inkscape:connector-curvature="0"
             style="opacity:0.81775668;fill:#55ffdd;fill-opacity:1;stroke:none;filter:url(#filter4041-2-7-59-6)"
             id="path3761-7-9-9-7-9-6-0-6-2-4"
             d="m 674.54513,670.24053 3.84475,6.65521 -3.84121,6.65726 -7.68595,0.002 -3.84476,-6.65521 3.84121,-6.65726 z" />
          <path
             d="m 674.54513,670.24053 3.84475,6.65521 -3.84121,6.65726 -7.68595,0.002 -3.84476,-6.65521 3.84121,-6.65726 z"
             id="right-eye-5-3"
             style="fill:#ffffff;fill-opacity:1;stroke:none;filter:url(#filter4041-2-7-59-6)"
             inkscape:connector-curvature="0"
             class="flicker-right" />
        </g>
        <path
           class="flicker-left"
           d="m 94.244055,26.704982 4.73802,8.20145 -4.73365,8.20397 -9.471668,0.003 -4.73802,-8.20145 4.73365,-8.20396 z"
           id="left-eye-5-1"
           style="fill:#ffffff;fill-opacity:1;stroke:none;filter:url(#filter4007-6-3-0-6-2)"
           inkscape:connector-curvature="0"
           transform="matrix(0.50759065,0,0,0.48658176,121.21228,431.01631)" />
      </g>
    </g>
  </g>
</svg>
